
<!-- Generator: visioncortex VTracer 0.6.4 -->
<svg version="1.1" xmlns="http://www.w3.org/2000/svg" viewBox="0 0 512 512" preserveAspectRatio="xMidYMid meet">
<path d="M0 0 C0.996 -0.005 1.993 -0.011 3.02 -0.016 C6.333 -0.031 9.645 -0.024 12.958 -0.016 C15.344 -0.022 17.73 -0.029 20.116 -0.037 C25.909 -0.053 31.701 -0.055 37.494 -0.05 C42.206 -0.046 46.917 -0.047 51.629 -0.053 C52.301 -0.053 52.974 -0.054 53.666 -0.055 C55.033 -0.057 56.399 -0.058 57.765 -0.06 C70.558 -0.073 83.35 -0.068 96.143 -0.056 C107.826 -0.046 119.508 -0.059 131.191 -0.083 C143.21 -0.108 155.229 -0.117 167.249 -0.111 C173.987 -0.107 180.726 -0.109 187.464 -0.127 C193.802 -0.142 200.14 -0.138 206.479 -0.12 C208.799 -0.116 211.119 -0.119 213.44 -0.13 C232.097 -0.207 245.153 1.515 259.365 14.7 C269.326 25.225 272.047 37.074 272.127 51.177 C272.154 52.953 272.154 52.953 272.181 54.766 C272.235 58.515 272.269 62.264 272.303 66.013 C272.336 68.569 272.37 71.125 272.406 73.681 C272.491 79.916 272.559 86.152 272.615 92.388 C278.535 88.498 284.453 84.606 290.37 80.712 C292.374 79.393 294.378 78.076 296.383 76.759 C308.865 68.557 321.268 60.255 333.573 51.79 C338.46 48.435 343.378 45.125 348.303 41.825 C349.79 40.819 349.79 40.819 351.308 39.792 C365.199 30.492 377.669 26.275 394.451 28.817 C408.187 32.418 418.789 41.255 425.939 53.26 C431.855 64.299 432.196 75.192 432.133 87.364 C432.138 89.138 432.145 90.912 432.154 92.686 C432.172 97.467 432.165 102.248 432.152 107.029 C432.142 112.054 432.152 117.08 432.158 122.105 C432.165 130.541 432.156 138.977 432.137 147.413 C432.115 157.139 432.122 166.864 432.144 176.589 C432.162 184.969 432.164 193.349 432.154 201.729 C432.148 206.721 432.147 211.713 432.16 216.705 C432.172 221.4 432.164 226.095 432.141 230.79 C432.135 232.504 432.137 234.217 432.146 235.931 C432.221 251.94 429.47 265.503 418.431 277.825 C408.66 287.324 397.171 292.516 383.553 292.7 C382.865 292.729 382.177 292.758 381.469 292.788 C370.458 292.919 361.339 288.13 352.553 281.95 C350.469 280.525 348.386 279.101 346.303 277.677 C345.106 276.852 343.909 276.027 342.713 275.201 C335.146 269.993 327.515 264.878 319.897 259.743 C317.064 257.833 314.232 255.921 311.401 254.008 C298.555 245.337 285.642 236.785 272.615 228.388 C272.611 229.038 272.608 229.687 272.604 230.357 C272.562 237.172 272.492 243.986 272.408 250.8 C272.379 253.337 272.358 255.874 272.344 258.411 C272.322 262.076 272.276 265.739 272.224 269.403 C272.223 271.082 272.223 271.082 272.221 272.795 C271.961 287.046 266.894 297.907 257.178 308.2 C243.455 321.134 227.851 320.973 210.045 320.905 C207.658 320.911 205.272 320.918 202.886 320.926 C197.1 320.943 191.315 320.94 185.529 320.929 C180.823 320.92 176.117 320.919 171.411 320.923 C170.739 320.924 170.067 320.924 169.375 320.925 C168.009 320.926 166.643 320.927 165.277 320.929 C152.498 320.94 139.719 320.927 126.94 320.905 C115.996 320.888 105.053 320.891 94.109 320.909 C81.373 320.931 68.636 320.939 55.9 320.927 C54.54 320.925 53.179 320.924 51.819 320.923 C51.149 320.922 50.48 320.922 49.791 320.921 C45.095 320.918 40.4 320.923 35.705 320.933 C29.375 320.944 23.045 320.936 16.715 320.913 C14.398 320.908 12.081 320.909 9.764 320.918 C-8.879 320.983 -21.935 319.25 -36.135 306.075 C-45.284 296.409 -48.859 285.091 -48.773 272.003 C-48.778 271.006 -48.783 270.01 -48.789 268.983 C-48.803 265.67 -48.796 262.357 -48.789 259.044 C-48.795 256.658 -48.802 254.273 -48.81 251.887 C-48.826 246.094 -48.828 240.302 -48.823 234.509 C-48.819 229.797 -48.82 225.085 -48.825 220.374 C-48.826 219.701 -48.827 219.029 -48.828 218.336 C-48.829 216.97 -48.831 215.604 -48.832 214.238 C-48.846 201.445 -48.841 188.652 -48.829 175.86 C-48.819 164.177 -48.832 152.494 -48.856 140.812 C-48.88 128.792 -48.89 116.773 -48.883 104.754 C-48.88 98.016 -48.882 91.277 -48.9 84.539 C-48.915 78.2 -48.911 71.862 -48.892 65.524 C-48.889 63.204 -48.892 60.883 -48.902 58.563 C-48.98 39.906 -47.258 26.85 -34.072 12.638 C-24.406 3.489 -13.088 -0.086 0 0 Z M-12.322 38.138 C-16.304 44.412 -16.678 50.471 -16.646 57.673 C-16.65 58.587 -16.653 59.501 -16.657 60.444 C-16.668 63.496 -16.664 66.549 -16.66 69.602 C-16.664 71.795 -16.669 73.989 -16.675 76.182 C-16.689 82.132 -16.689 88.083 -16.687 94.033 C-16.685 99.003 -16.69 103.973 -16.695 108.944 C-16.707 121.341 -16.706 133.738 -16.7 146.135 C-16.694 156.889 -16.706 167.643 -16.725 178.397 C-16.744 189.452 -16.752 200.507 -16.749 211.562 C-16.747 217.764 -16.749 223.965 -16.763 230.166 C-16.776 235.999 -16.774 241.831 -16.761 247.664 C-16.759 249.802 -16.761 251.939 -16.77 254.077 C-16.78 257.001 -16.772 259.925 -16.759 262.849 C-16.767 263.689 -16.774 264.53 -16.782 265.396 C-16.726 271.462 -16.023 278.086 -12.11 282.983 C-6.081 288.469 1.211 288.683 8.9 288.648 C9.814 288.652 10.729 288.656 11.671 288.66 C14.724 288.67 17.776 288.666 20.829 288.662 C23.023 288.667 25.216 288.672 27.409 288.678 C33.36 288.691 39.31 288.692 45.261 288.689 C50.231 288.688 55.201 288.693 60.171 288.698 C72.568 288.71 84.965 288.709 97.363 288.702 C108.116 288.697 118.87 288.708 129.624 288.727 C140.679 288.747 151.734 288.755 162.79 288.751 C168.991 288.749 175.192 288.752 181.394 288.766 C187.226 288.779 193.059 288.777 198.891 288.764 C201.029 288.761 203.167 288.764 205.304 288.772 C208.228 288.783 211.152 288.775 214.076 288.762 C214.917 288.769 215.757 288.777 216.623 288.784 C222.69 288.729 229.314 288.026 234.21 284.113 C239.696 278.084 239.91 270.791 239.876 263.103 C239.88 262.188 239.883 261.274 239.887 260.332 C239.898 257.279 239.894 254.226 239.89 251.173 C239.894 248.98 239.899 246.787 239.905 244.593 C239.919 238.643 239.919 232.693 239.917 226.742 C239.916 221.772 239.92 216.802 239.925 211.832 C239.937 199.434 239.936 187.037 239.93 174.64 C239.924 163.886 239.936 153.132 239.955 142.379 C239.974 131.324 239.982 120.268 239.979 109.213 C239.977 103.012 239.979 96.811 239.993 90.609 C240.006 84.777 240.004 78.944 239.991 73.112 C239.989 70.974 239.991 68.836 240 66.698 C240.01 63.774 240.002 60.851 239.989 57.927 C239.997 57.086 240.004 56.246 240.012 55.38 C239.957 49.313 239.253 42.689 235.34 37.792 C229.311 32.307 222.019 32.093 214.33 32.127 C213.416 32.123 212.501 32.119 211.559 32.115 C208.506 32.105 205.454 32.109 202.401 32.113 C200.207 32.109 198.014 32.103 195.821 32.098 C189.87 32.084 183.92 32.084 177.97 32.086 C172.999 32.087 168.029 32.082 163.059 32.077 C150.662 32.066 138.265 32.067 125.867 32.073 C115.114 32.078 104.36 32.067 93.606 32.048 C82.551 32.029 71.496 32.021 60.441 32.024 C54.239 32.026 48.038 32.023 41.837 32.009 C36.004 31.997 30.171 31.999 24.339 32.012 C22.201 32.014 20.063 32.011 17.926 32.003 C15.002 31.993 12.078 32.001 9.154 32.013 C8.314 32.006 7.473 31.999 6.607 31.991 C-0.142 32.052 -7.555 32.899 -12.322 38.138 Z M372.178 65.638 C371.528 66.069 370.878 66.501 370.208 66.946 C366.066 69.713 361.972 72.532 357.922 75.431 C348.047 82.496 337.939 89.184 327.781 95.832 C322.929 99.008 318.084 102.193 313.24 105.38 C312.304 105.996 311.368 106.611 310.403 107.246 C301.139 113.346 291.876 119.474 282.838 125.908 C280.615 127.388 280.615 127.388 278.302 128.562 C274.717 130.5 272.146 131.989 270.662 135.899 C270.172 139.031 269.979 142.055 269.892 145.224 C269.81 146.945 269.81 146.945 269.726 148.701 C269.592 152.391 269.553 156.07 269.553 159.763 C269.551 161.01 269.549 162.257 269.547 163.543 C269.582 167.244 269.706 170.929 269.873 174.626 C269.9 175.76 269.928 176.893 269.956 178.061 C270.492 185.832 272.739 189.854 278.511 195.091 C281.397 197.311 284.044 198.696 287.498 199.853 C297.448 203.652 305.813 210.006 314.494 216.062 C318.965 219.167 323.484 222.202 328.002 225.239 C328.872 225.826 329.742 226.413 330.638 227.018 C339.457 232.966 348.31 238.863 357.166 244.756 C363.474 248.959 369.771 253.178 376.069 257.395 C379.789 259.784 383.297 260.067 387.615 259.388 C393.23 256.868 396.153 252.88 398.615 247.388 C399.452 242.736 399.742 238.253 399.749 233.532 C399.752 232.553 399.752 232.553 399.756 231.553 C399.762 229.385 399.761 227.217 399.76 225.048 C399.763 223.486 399.767 221.923 399.77 220.36 C399.779 216.129 399.782 211.897 399.782 207.666 C399.783 205.019 399.785 202.372 399.788 199.725 C399.797 190.481 399.801 181.238 399.8 171.995 C399.8 163.393 399.81 154.791 399.826 146.189 C399.839 138.791 399.845 131.393 399.844 123.995 C399.844 119.582 399.846 115.169 399.857 110.757 C399.867 106.605 399.867 102.453 399.86 98.302 C399.858 96.783 399.861 95.265 399.867 93.746 C400.119 77.864 400.119 77.864 392.615 64.388 C389.126 61.464 386.287 61.017 381.762 61.091 C377.974 61.615 375.303 63.55 372.178 65.638 Z " fill="#000000" transform="translate(64.38497924804688,95.61231994628906)"/>
</svg>